<svg width="238" height="210" viewBox="0 0 238 210" fill="none" xmlns="http://www.w3.org/2000/svg">
<path fill-rule="evenodd" clip-rule="evenodd" d="M149.968 130.437C149.685 163.626 106.413 197.4 77.8106 204.929L77.8006 204.939C70.0684 206.821 62.2139 208.163 54.2944 208.953C33.342 211.1 12.5504 209.595 12.4298 207.588C12.3897 206.841 15.3053 206.25 20.7341 205.148C23.4766 204.592 26.8604 203.905 30.8286 203.003C34.6289 202.14 58.1853 196.541 71.8285 181.37C74.4827 178.43 80.1431 172.129 82.8275 162.547C83.6082 159.69 84.0999 156.763 84.2954 153.808C84.6724 147.895 83.9254 141.965 82.0936 136.33C81.4037 134.316 80.5968 132.348 79.6785 130.437H149.968Z" fill="url(#paint0_linear_551_28)"/>
<path fill-rule="evenodd" clip-rule="evenodd" d="M149.968 130.437H79.6784C77.6543 126.223 75.0886 122.28 72.0396 118.711C58.9695 103.038 40.7719 96.9378 33.7341 94.63C22.1708 90.8861 12.7608 90.066 6.84593 89.5505C2.55235 89.1763 0.100351 88.9625 0.00308835 87.9075C-0.328709 84.3557 26.1433 79.0579 46.1908 77.1516C55.691 76.2032 65.2499 75.9785 74.7843 76.4793C82.4143 76.8566 90.0094 77.7551 97.5163 79.1683C114.96 82.8807 142.829 97.9712 148.791 120.848C149.62 124.022 149.995 127.227 149.968 130.437Z" fill="url(#paint1_linear_551_28)"/>
<path fill-rule="evenodd" clip-rule="evenodd" d="M196.212 130.437C195.997 135.68 194.838 140.651 192.556 145.239C181.397 167.673 142.371 182.959 115.862 193.343L115.714 193.401C110.134 195.578 94.3995 200.825 86.7585 202.832L83.5814 203.655C80.0626 204.588 77.0464 205.23 71.014 206.514C70.5445 206.692 70.0306 206.717 69.5462 206.585C69.4314 206.303 70.7347 205.51 71.2247 205.213C71.2928 205.171 71.3453 205.139 71.3759 205.12C74.2112 203.414 87.211 191.976 97.4358 180.317C107.982 168.049 117.033 154.577 124.4 140.182C125.765 136.986 126.988 133.734 128.066 130.437H196.212Z" fill="url(#paint2_linear_551_28)"/>
<path fill-rule="evenodd" clip-rule="evenodd" d="M97.547 6.70399e-09C97.2461 2.38929e-05 97.01 0.0638773 96.8426 0.193998H96.8226C95.443 1.26237 99.0292 8.2407 104.413 18.718C116.373 41.9909 137.205 82.5278 132.192 113.904C131.212 119.51 129.833 125.035 128.066 130.436H196.212C198.337 78.577 108.103 -0.000838078 97.547 6.70399e-09Z" fill="url(#paint3_linear_551_28)"/>
<path fill-rule="evenodd" clip-rule="evenodd" d="M236.716 130.437H210.496L196.548 148.842L236.716 130.437Z" fill="#EDCB2C"/>
<path fill-rule="evenodd" clip-rule="evenodd" d="M236.716 130.436H210.496L217.611 121.049L238 129.848L236.716 130.436Z" fill="#1046AE"/>
<defs>
<linearGradient id="paint0_linear_551_28" x1="-0.0471295" y1="143.092" x2="149.968" y2="143.092" gradientUnits="userSpaceOnUse">
<stop stop-color="#F7D73F"/>
<stop offset="0.546837" stop-color="#F7D73F"/>
<stop offset="0.99" stop-color="#DCB80E"/>
</linearGradient>
<linearGradient id="paint1_linear_551_28" x1="-0.0471817" y1="143.092" x2="149.968" y2="143.092" gradientUnits="userSpaceOnUse">
<stop stop-color="#2758B7"/>
<stop offset="0.546837" stop-color="#2758B7"/>
<stop offset="0.99" stop-color="#0039A7"/>
</linearGradient>
<linearGradient id="paint2_linear_551_28" x1="132.896" y1="206.635" x2="132.896" y2="-0.00655171" gradientUnits="userSpaceOnUse">
<stop stop-color="#F7D73F"/>
<stop offset="0.375" stop-color="#F7D73F"/>
<stop offset="0.99" stop-color="#DCB80E"/>
</linearGradient>
<linearGradient id="paint3_linear_551_28" x1="132.896" y1="206.635" x2="132.896" y2="-0.0066757" gradientUnits="userSpaceOnUse">
<stop stop-color="#2758B7"/>
<stop offset="0.375" stop-color="#2758B7"/>
<stop offset="0.99" stop-color="#0039A7"/>
</linearGradient>
</defs>
</svg>
